<?xml version="1.0" encoding="UTF-8"?>
<svg xmlns="http://www.w3.org/2000/svg" xmlns:xlink="http://www.w3.org/1999/xlink" width="480pt" height="480pt" viewBox="0 0 480 480" version="1.1">
<g id="surface24396343">
<path style=" stroke:none;fill-rule:nonzero;fill:rgb(9.803922%,46.27451%,82.352942%);fill-opacity:1;" d="M 240 0 C 107.453125 0 0 107.453125 0 240 C 0 372.546875 107.453125 480 240 480 C 372.546875 480 480 372.546875 480 240 C 480 107.453125 372.546875 0 240 0 Z M 240 0 "/>
<path style=" stroke:none;fill-rule:nonzero;fill:rgb(100%,100%,100%);fill-opacity:1;" d="M 383.242188 168.492188 C 383.796875 166.679688 384.058594 165 383.988281 163.5 C 383.808594 159.15625 380.820312 156 373.789062 156 L 342.371094 156 C 334.441406 156 330.78125 160.800781 328.644531 165.613281 C 328.644531 165.613281 309.058594 205.921875 286.488281 232.5 C 279.167969 240.191406 275.449219 240 271.488281 240 C 269.363281 240 264 237.433594 264 230.386719 L 264 168.167969 C 264 159.839844 261.925781 156 255.214844 156 L 199.429688 156 C 194.542969 156 192 159.839844 192 163.691406 C 192 171.695312 202.777344 173.617188 204 196.042969 L 204 239.519531 C 204 250.078125 202.164062 252 198.203125 252 C 187.523438 252 166.5 216 152.425781 168.816406 C 149.375 159.527344 146.328125 156 138.394531 156 L 106.679688 156 C 97.523438 156 96 160.488281 96 165.289062 C 96 173.941406 103.199219 220.714844 142.5 274.5 C 171 313.5 208.546875 336 241.789062 336 C 261.925781 336 263.988281 330.875 263.988281 322.871094 L 263.988281 287.207031 C 264 277.597656 266.195312 276 272.605469 276 C 277.175781 276 286.5 279 304.5 300 C 325.261719 324.214844 329.027344 336 340.933594 336 L 372.347656 336 C 379.644531 336 383.832031 332.941406 384 327 C 384.035156 325.488281 383.820312 323.796875 383.328125 321.910156 C 381 315 370.320312 298.105469 357 282 C 349.621094 273.082031 342.335938 264.253906 338.988281 259.453125 C 336.742188 256.320312 335.890625 254.113281 336 252 C 336.109375 249.78125 337.261719 247.667969 338.988281 244.714844 C 338.675781 244.714844 379.285156 187.703125 383.242188 168.492188 Z M 383.242188 168.492188 "/>
</g>
</svg>
